<svg id="Layer_1" enable-background="new 0 0 512 512" height="512" viewBox="0 0 512 512" width="512" xmlns="http://www.w3.org/2000/svg"><g><g><path d="m344.32 446.5c5.024 0 9.269-3.728 9.917-8.71 5.843-44.921 30.058-115.23 54.148-157.401 38.257-39.315 71.537-84.814 71.537-160.389v-90c0-16.542-13.458-30-30-30h-90c-16.519 0-29.977 13.452-30 29.986l-.087 62.072-294.827 294.827c-3.905 3.905-3.905 10.237 0 14.143 9.748 9.747 22.552 14.621 35.355 14.621 12.804 0 25.608-4.874 35.356-14.621l56.474-56.474c19.749 5.153 40.34 6.411 60.95 3.966l15.929 89.729c.848 4.773 4.998 8.252 9.846 8.252h6.2v55.499c0 5.522 4.477 10 10 10h118.598c5.523 0 10-4.478 10-10s-4.477-10-10-10h-45.596v-45.5zm-8.618-20h-15.402l-7.092-39.949c14.997-25.233 34.114-46.03 53.849-65.591-14.273 35.262-26.224 74.776-31.355 105.54zm-92.861-81.448c24.749-5.784 49.146-16.879 71.751-33.029 4.494-3.211 5.534-9.456 2.323-13.95-3.211-4.495-9.458-5.534-13.95-2.323-38.73 27.671-83.022 38.925-123.947 31.979l89.416-89.416c3.905-3.905 3.905-10.237 0-14.143-3.905-3.904-10.237-3.904-14.143 0l-162.714 162.715c-9.218 9.219-22.994 11.172-34.144 5.859l283.068-283.068c50.749 44.526 30.228 100.172 18.607 122.673-2.535 4.907-.611 10.939 4.296 13.474 4.909 2.534 10.939.611 13.474-4.296 29.213-56.562 19.04-112.323-27.043-150.139l.086-61.373c.008-5.521 4.493-10.014 10-10.014h90c5.514 0 10 4.486 10 10v90c0 83.307-43.944 125.757-90.469 170.699-37.91 36.621-77.061 74.442-95.675 135.801h-16.477zm75.279 146.948h-43v-45.5h6.2c4.526 0 8.488-3.04 9.659-7.412 2.079-7.758 4.535-15.131 7.306-22.176l3.788 21.336c.848 4.773 4.998 8.252 9.846 8.252h6.2v45.5z"/><path d="m404.823 85.245c4.52 0 8.477-3.031 9.655-7.395 2.588-9.592 8.618-15.71 17.921-18.185 5.337-1.42 8.513-6.898 7.093-12.235-1.42-5.338-6.899-8.512-12.235-7.093-9.134 2.431-16.737 7.125-22.433 13.705-5.696-6.58-13.299-11.274-22.433-13.705-5.338-1.422-10.815 1.756-12.235 7.093s1.756 10.815 7.093 12.235c9.303 2.475 15.333 8.593 17.921 18.185 1.176 4.364 5.134 7.395 9.653 7.395z"/><path d="m342.328 283.904h.007c5.523 0 9.996-4.478 9.996-10s-4.48-10-10.003-10-10 4.478-10 10 4.478 10 10 10z"/></g></g></svg>